<svg xmlns="http://www.w3.org/2000/svg" xmlns:xlink="http://www.w3.org/1999/xlink"><symbol fill="none" viewBox="0 0 24 24" stroke-width="2" stroke="currentColor" class="fw-4 fh-4" id="svg-continue" xmlns="http://www.w3.org/2000/svg"><path stroke-linecap="round" stroke-linejoin="round" d="M17.25 8.25 21 12m0 0-3.75 3.75M21 12H3"/></symbol><symbol viewBox="0 0 24 24" xml:space="preserve" id="svg-email" xmlns="http://www.w3.org/2000/svg"><path d="M21 11c0 6.7-4.3 6.4-4.8 6.4-.6 0-1.1-.1-1.6-.4-.4-.3-.8-.6-1-1.1-.4.5-.8.9-1.3 1.1-.5.3-1 .4-1.6.4-.5 0-1-.1-1.4-.3-.4-.2-.8-.6-1-1-.3-.4-.5-.9-.6-1.5-.1-.6-.1-1.3-.1-2 .1-.9.3-1.7.6-2.5.3-.7.7-1.4 1.1-1.9.4-.5.9-.9 1.5-1.2.6-.3 1.2-.4 1.8-.4 2 0 3.1 1 3.3 1.2l-.5 6.2c0 .4-.2 1.8 1.1 1.8.4 0 2.4-.5 2.4-4.7 0-.1.9-7-6.6-7C6.3 4 5 9.9 5 12c0 8.4 5.3 8 7 8 2 0 3.1-.4 3.3-.5l.4 1.8c-.2.2-1.2.7-3.7.7-3.1 0-9-.1-9-10 0-1.4.8-10 9.5-10 8.3 0 8.5 7.6 8.5 9zm-10.9 1.6c-.1.9 0 1.7.2 2.2.2.5.6.7 1.2.7 1.1 0 1.7-1.4 1.8-1.8l.5-5.1c-.1 0-.7-.1-.9-.1-.8 0-1.5.4-1.9 1.1-.5.6-.8 1.6-.9 3z"/><path style="fill:none" d="M0 0h24v24H0z"/></symbol><symbol viewBox="0 0 24 24" id="svg-github" xmlns="http://www.w3.org/2000/svg"><path fill-rule="evenodd" clip-rule="evenodd" d="M12.026 2c-5.509 0-9.974 4.465-9.974 9.974 0 4.406 2.857 8.145 6.821 9.465.499.09.679-.217.679-.481 0-.237-.008-.865-.011-1.696-2.775.602-3.361-1.338-3.361-1.338-.452-1.152-1.107-1.459-1.107-1.459-.905-.619.069-.605.069-.605 1.002.07 1.527 1.028 1.527 1.028.89 1.524 2.336 1.084 2.902.829.091-.645.351-1.085.635-1.334-2.214-.251-4.542-1.107-4.542-4.93 0-1.087.389-1.979 1.024-2.675-.101-.253-.446-1.268.099-2.64 0 0 .837-.269 2.742 1.021a9.582 9.582 0 0 1 2.496-.336 9.554 9.554 0 0 1 2.496.336c1.906-1.291 2.742-1.021 2.742-1.021.545 1.372.203 2.387.099 2.64.64.696 1.024 1.587 1.024 2.675 0 3.833-2.33 4.675-4.552 4.922.355.308.675.916.675 1.846 0 1.334-.012 2.41-.012 2.737 0 .267.178.577.687.479C19.146 20.115 22 16.379 22 11.974 22 6.465 17.535 2 12.026 2z"/></symbol><symbol class="cw-3 ch-3 cml-2.5" fill="none" viewBox="0 0 18 18" id="svg-go" xmlns="http://www.w3.org/2000/svg"><path stroke="currentColor" stroke-linecap="round" stroke-linejoin="round" stroke-width="2" d="M15 11v4.833A1.166 1.166 0 0 1 13.833 17H2.167A1.167 1.167 0 0 1 1 15.833V4.167A1.166 1.166 0 0 1 2.167 3h4.618m4.447-2H17v5.768M9.111 8.889l7.778-7.778"/></symbol><symbol viewBox="0 0 50 50" id="svg-linkedin" xmlns="http://www.w3.org/2000/svg"><path d="M41 4H9C6.24 4 4 6.24 4 9v32c0 2.76 2.24 5 5 5h32c2.76 0 5-2.24 5-5V9c0-2.76-2.24-5-5-5zM17 20v19h-6V20h6zm-6-5.53c0-1.4 1.2-2.47 3-2.47s2.93 1.07 3 2.47c0 1.4-1.12 2.53-3 2.53-1.8 0-3-1.13-3-2.53zM39 39h-6V29c0-2-1-4-3.5-4.04h-.08C27 24.96 26 27.02 26 29v10h-6V20h6v2.56S27.93 20 31.81 20c3.97 0 7.19 2.73 7.19 8.26V39z"/></symbol><symbol class="aw-8 ah-8 atext-gray-400 adark:text-gray-600 amb-4" fill="currentColor" viewBox="0 0 18 14" id="svg-quote" xmlns="http://www.w3.org/2000/svg"><path d="M6 0H2a2 2 0 0 0-2 2v4a2 2 0 0 0 2 2h4v1a3 3 0 0 1-3 3H2a1 1 0 0 0 0 2h1a5.006 5.006 0 0 0 5-5V2a2 2 0 0 0-2-2Zm10 0h-4a2 2 0 0 0-2 2v4a2 2 0 0 0 2 2h4v1a3 3 0 0 1-3 3h-1a1 1 0 0 0 0 2h1a5.006 5.006 0 0 0 5-5V2a2 2 0 0 0-2-2Z"/></symbol></svg>